<svg width="238" height="80" viewBox="0 0 238 80" fill="none" xmlns="http://www.w3.org/2000/svg">
<path fill-rule="evenodd" clip-rule="evenodd" d="M106.19 9.49407C102.477 12.6181 99.5349 18.7911 97.9709 26.7421L96.7609 32.8901L94.3879 31.3351C92.9529 30.3951 90.627 29.9411 88.507 30.1891C85.141 30.5821 84.9999 30.4691 84.9999 27.3881C84.9999 22.7571 79.924 18.5881 75.216 19.3521C70.0069 20.1981 68.8849 21.6421 69.1369 27.1781C69.4249 33.4851 68.0289 34.9551 64.4359 32.1291C61.4269 29.7621 58.8849 29.4561 55.8269 31.0931C54.3499 31.8831 53.4829 31.8831 52.6929 31.0931C52.0919 30.4921 50.8489 30.0001 49.9319 30.0001C48.7359 30.0001 48.1079 28.8451 47.7169 25.9281C46.6129 17.6981 38.7199 9.47207 30.8989 8.40007C23.5449 7.39207 18.1829 9.45107 12.4199 15.4951C8.59794 19.5041 6.80195 22.4601 5.16995 27.4321C2.74395 34.8231 2.31295 44.9741 4.16195 51.1481C5.39995 55.2781 10.3789 61.0441 15.2859 64.0281C16.9259 65.0251 19.2269 67.5511 20.3989 69.6411C22.9249 74.1441 28.2469 78.0001 31.9359 78.0001C35.5769 78.0001 42.9849 74.0471 45.2969 70.8701C47.6339 67.6601 47.0069 65.1611 42.8149 60.9691C39.0409 57.1941 39.7999 55.8061 43.6739 59.3991C46.7949 62.2921 49.2839 62.6021 52.9789 60.5571C55.0969 59.3841 55.8709 59.3991 58.3119 60.6611C60.5339 61.8101 61.8489 61.9001 64.2479 61.0631C66.5019 60.2781 68.2069 60.3071 70.5989 61.1721C73.2879 62.1441 74.6139 62.0621 78.0509 60.7121C81.7669 59.2521 82.5489 59.2321 85.0669 60.5351C88.6229 62.3731 91.1469 62.3831 95.4729 60.5761C98.4219 59.3441 99.04 59.3441 100.063 60.5761C101.623 62.4551 104.916 62.3861 107.08 60.4271C108.661 58.9971 109.094 58.9971 111.859 60.4271C115.779 62.4541 118.557 62.3851 123.5 60.1371C130.412 56.9921 130.628 56.2971 128.129 45.2071C126.284 37.0141 125.437 35.0241 122.704 32.4491C119.574 29.5021 119.505 29.2651 120.655 25.4491C122.874 18.0911 122.358 13.5121 118.923 10.0771C115.003 6.15607 110.406 5.94607 106.19 9.49407ZM188.978 11.6721C187.19 13.1761 185.104 15.9001 184.341 17.7261C183.12 20.6491 182.709 20.9151 180.902 19.9481C179.748 19.3301 177.209 19.1271 175.097 19.4841C172.22 19.9701 171.01 19.7161 169.921 18.3971C169.14 17.4511 166.025 15.5481 163 14.1691C158.41 12.0761 155.928 11.6511 148 11.5991C135.855 11.5191 131.358 13.5391 127.63 20.7491C125.257 25.3371 125.534 30.2141 128.314 32.8261C129.587 34.0221 131.177 35.0001 131.846 35.0001C132.768 35.0001 132.898 37.5481 132.384 45.5081C131.786 54.7541 131.917 56.2511 133.475 57.9721C136.519 61.3361 143.837 63.5001 152.166 63.5001C158.702 63.5001 160.314 63.1441 163.098 61.0861C166.241 58.7621 166.471 58.7341 169.263 60.3361C172.965 62.4611 175.505 62.4081 180.586 60.1001C184.567 58.2931 184.735 58.2931 187.086 60.1001C190.208 62.5001 193.15 62.4741 197.991 60.0051L201.902 58.0091L205.496 60.1301C211.451 63.6441 219.69 61.4961 227.388 54.4221L231.276 50.8491L226.761 46.1751C224.278 43.6041 221.97 40.3131 221.632 38.8611C221.294 37.4101 219.366 34.7721 217.347 33.0001C214.123 30.1691 213.149 29.8361 209.357 30.2631C203.767 30.8931 202.568 29.4531 202.891 22.4931C203.116 17.6161 202.834 16.8021 199.82 13.6391C195.171 8.75907 192.924 8.35207 188.978 11.6721ZM27.9999 21.6571C23.7529 22.8591 18.0319 35.5511 18.0109 43.8161C17.9969 49.3361 19.4409 52.0001 22.4459 52.0001C27.7629 52.0001 32.9999 41.0331 32.9999 29.9001C32.9999 21.4431 32.3779 20.4171 27.9999 21.6571ZM151.755 27.5001C151.343 29.6561 151.641 30.0001 153.916 30.0001C157.489 30.0001 161.718 27.0701 159.852 25.8871C159.108 25.4161 157.09 25.0241 155.367 25.0151C152.813 25.0031 152.145 25.4621 151.755 27.5001ZM193.607 41.5821C192.696 43.9561 192.876 47.0001 193.929 47.0001C195.54 47.0001 198 43.9361 198 41.9291C198 39.5591 194.489 39.2821 193.607 41.5821ZM147.617 42.5561C147.278 43.4401 147 45.7021 147 47.5821C147 50.3611 147.383 51.0001 149.05 51.0001C152.376 51.0001 157 48.1231 157 46.0541C157 44.7251 156.029 43.9511 153.75 43.4641C151.963 43.0821 149.99 42.3601 149.367 41.8591C148.632 41.2691 148.017 41.5141 147.617 42.5561Z" fill="#FFDE59"/>
<path fill-rule="evenodd" clip-rule="evenodd" d="M109.009 8.75903C107.101 9.71603 104.541 11.996 103.319 13.825C100.893 17.457 98.0004 26.384 98.0004 30.237C98.0004 33.636 97.1414 34.138 94.3994 32.342C92.9244 31.375 90.5354 30.93 88.0844 31.163C84.3084 31.523 84.1644 31.43 84.6604 28.952C85.4504 24.999 80.8444 20 76.4114 20C71.4564 20 68.6164 23.157 69.3414 27.86C69.7084 30.242 69.4034 32.167 68.4584 33.431C67.0404 35.329 66.9744 35.324 64.6934 33.181C62.1544 30.796 57.1244 30.276 55.2004 32.2C54.2674 33.133 53.7334 33.133 52.8004 32.2C52.1404 31.54 50.8404 31 49.9114 31C48.7554 31 48.0034 29.831 47.5284 27.297C46.5124 21.879 43.6054 16.738 39.5414 13.17C35.2354 9.39003 32.5584 8.62103 25.7044 9.19803C12.8464 10.28 3.72836 23.383 3.57436 41C3.50836 48.562 3.80635 50.02 6.27236 54.216C8.93236 58.741 13.5854 63.031 17.2184 64.309C18.1644 64.641 19.5654 66.416 20.3324 68.253C24.3744 77.925 35.3034 79.831 43.2504 72.249C44.7634 70.806 46.0004 68.646 46.0004 67.448C46.0004 64.406 42.2814 60 39.7134 60C37.7344 60 37.6954 59.876 39.2004 58.371C40.7064 56.866 41.0684 56.912 43.9674 58.977C46.3604 60.68 47.8664 61.054 50.3034 60.547C52.0614 60.181 54.5134 59.92 55.7504 59.966C61.7364 60.189 64.6694 60.253 66.5004 60.199C67.6004 60.167 70.5254 60.147 73.0004 60.155C75.4754 60.163 79.0754 60.099 81.0004 60.014C82.9254 59.928 86.1554 60.161 88.1794 60.53C90.2874 60.915 93.4214 60.686 95.5214 59.993C98.2014 59.109 99.4814 59.081 100.292 59.892C101.884 61.484 105.601 61.256 107.399 59.458C108.789 58.068 109.194 58.081 111.49 59.586C114.818 61.766 121.735 61.037 125.909 58.065C129.451 55.543 129.871 52.162 127.471 45.5C126.679 43.3 126.023 40.309 126.015 38.854C126.005 37.074 124.81 35.162 122.367 33.018C118.846 29.926 118.77 29.712 119.867 26.048C123.604 13.577 117.805 4.34403 109.009 8.75903ZM107.069 12.926C103.68 16.554 100.3 27.717 99.3884 38.294C98.7514 45.689 98.5314 46.242 95.1084 49.077C88.4264 54.614 83.5014 50.733 86.3144 42.148C87.6454 38.084 90.3234 37.253 90.8204 40.75C91.2204 43.568 93.5714 43.67 95.0364 40.933C95.8964 39.326 95.7894 38.327 94.5584 36.449C89.9524 29.419 80.5724 34.804 79.2934 45.212C78.7744 49.429 76.8874 52 74.3094 52C72.5734 52 72.6424 49.921 74.6674 41.263C75.5984 37.283 76.0584 33.725 75.6894 33.356C75.3214 32.987 74.0024 33.139 72.7604 33.693C71.0494 34.455 70.0104 36.493 68.4834 42.082C66.7644 48.373 66.0654 49.605 63.7524 50.418C62.2604 50.943 60.7674 51.1 60.4344 50.767C60.1014 50.434 60.3834 46.726 61.0604 42.527C62.0034 36.684 62.0164 34.616 61.1184 33.718C58.8254 31.425 56.6244 34.404 55.0004 42C53.5584 48.746 51.1854 52.519 49.4674 50.8C49.1204 50.454 49.3624 46.706 50.0044 42.471C51.3504 33.596 50.4124 31.144 46.9834 34.573C44.4644 37.091 41.9774 52.148 43.6414 54.803C45.2704 57.403 48.4664 57.363 51.5584 54.704L54.3534 52.299L56.4414 54.726C58.4604 57.074 58.6654 57.106 62.7444 55.7C66.3194 54.469 67.1344 54.457 68.1034 55.624C69.6914 57.537 72.8924 57.342 77.1244 55.074C80.2754 53.385 80.8984 53.327 82.1784 54.607C84.9864 57.415 90.1524 57.405 94.2944 54.584C98.8904 51.454 98.7844 51.462 99.1804 54.25C99.3884 55.713 100.188 56.5 101.469 56.5C102.87 56.5 104.638 54.386 107.6 49.169C112.132 41.186 113.625 39.291 114.608 40.274C114.96 40.627 114.106 42.274 112.709 43.934C106.867 50.877 108.942 57.984 116.403 56.584C118.377 56.214 121.154 54.911 122.574 53.69C124.668 51.889 125.023 50.939 124.451 48.661L123.746 45.853L120.46 49.039C117.458 51.948 115 52.343 115 49.917C115 49.386 116.575 46.662 118.5 43.864C122.418 38.168 122.694 36.837 120.429 34.571C117.924 32.067 115.948 32.697 111.396 37.447L107.134 41.895L110.487 35.197C116.557 23.071 118.572 13.972 115.8 11.2C113.718 9.11803 109.926 9.86703 107.069 12.926ZM190.35 11.176C189.168 11.748 186.99 14.44 185.511 17.157C183.307 21.207 182.566 21.884 181.397 20.915C180.501 20.171 178.341 19.956 175.581 20.334C172.369 20.774 171.049 20.571 170.668 19.577C170.381 18.83 167.551 16.949 164.379 15.397C159.641 13.079 156.962 12.503 149.363 12.171C141.305 11.819 139.514 12.057 135.459 14.02C129.894 16.714 127.009 21.005 127.004 26.595C127 30.83 129.204 34 132.154 34C133.419 34 133.579 35.703 133.195 45.028C132.663 57.938 133.239 59.103 141.346 61.51C149.218 63.848 157.674 63.448 162.84 60.495C166.794 58.234 167.371 58.146 169.313 59.507C172.063 61.433 175.958 61.401 180.933 59.41C184.564 57.957 185.101 57.957 187.175 59.41C190.211 61.536 194.267 61.415 198.884 59.059C202.353 57.29 202.829 57.258 204.27 58.699C205.139 59.568 208.055 60.491 210.749 60.75C216.223 61.276 220.895 59.379 227 54.154L230.5 51.158L226.338 46.829C224.048 44.448 221.515 40.888 220.709 38.918C218.526 33.587 214.481 30.819 209.334 31.136C203.561 31.491 200.737 29.052 202.168 24.948C203.534 21.029 201.709 15.775 197.857 12.533C194.583 9.77803 193.604 9.60103 190.35 11.176ZM19.9074 13.307C11.7784 17.562 5.97836 29.31 6.02236 41.432C6.05736 51.211 9.62335 57.273 17.2024 60.44C19.8974 61.566 21.1334 62.874 22.0094 65.526C24.4194 72.831 28.9454 74.599 36.0064 70.997C40.6354 68.635 42.2524 66.201 40.8524 63.701C39.9334 62.058 39.7044 62.074 37.0334 63.977C33.2274 66.686 29.8444 66.527 27.0044 63.504C24.3674 60.697 24.3214 60.814 28.7394 59.056C40.2404 54.478 47.2404 32.352 41.1554 19.81C39.4414 16.276 37.8314 14.613 34.6244 13.06C29.1194 10.395 25.3504 10.458 19.9074 13.307ZM188.589 16.654C187.223 18.664 185.547 22.489 184.864 25.154C183.793 29.332 183.276 30 181.111 30C179.158 30 178.867 29.733 179.8 28.8C182.028 26.572 181.234 23.097 178.331 22.368C174.819 21.487 171.462 25.126 173.05 28.093C173.611 29.142 174.715 30 175.504 30C177.582 30 176.291 32.546 173.588 33.778C169.454 35.661 166.239 53.294 169.532 56.026C171.39 57.569 177.495 56.039 181.087 53.131C183.338 51.308 183.399 51.321 185.773 54.142C188.735 57.662 190.378 57.704 196.556 54.419C200.641 52.247 201.574 52.063 202.454 53.256C205.876 57.894 213.286 57.749 219.963 52.912C226.396 48.252 224.423 44.016 217.869 48.415C213.542 51.32 209.958 52.21 208.262 50.802C207.191 49.914 207.681 49.261 210.68 47.579C215.258 45.011 217.54 41.287 216.666 37.807C215.826 34.457 211.363 32.531 207.684 33.93C204.786 35.032 201.01 40.356 201.004 43.349C200.998 46.127 195.264 51 192.001 51C188.714 51 188 49.586 188 43.073C188 37.057 189.877 35.233 196.498 34.815C200.297 34.575 201.561 34.084 201.814 32.75C202.087 31.314 201.412 31 198.053 31H193.959L195.98 27.04C201.194 16.818 194.689 7.67703 188.589 16.654ZM138.5 15.436C132.974 17.481 129 22.116 129 26.516C129 28.432 129.375 30 129.833 30C130.291 30 132.096 28.22 133.845 26.044C138.408 20.366 148.367 18.308 158.142 21.023C162.735 22.299 164.401 24.267 163.597 27.469C162.777 30.738 158.231 33 152.48 33C148.31 33 147.892 33.211 148.18 35.169C148.414 36.753 149.769 37.764 153.207 38.919C159.227 40.941 160.219 42.006 159.823 46.024C159.26 51.744 151.062 55.529 144.605 53.05L141.71 51.939L142.366 43.401C142.727 38.705 143.889 32.307 144.948 29.182C146.949 23.276 146.504 21.388 143.348 22.389C139.235 23.695 136.326 32.491 135.35 46.579L134.721 55.658L140.676 57.329C151.125 60.261 158.488 59.009 162.763 53.574C167.156 47.989 166.403 40.323 161.193 37.593L158.662 36.267L162.184 35.104C169.234 32.777 172.562 25.488 168.581 21.089C163.636 15.626 146.627 12.429 138.5 15.436ZM109.548 17.33C107.345 20.641 104.979 29.131 105.05 33.468C105.086 35.672 106.045 33.906 108.562 27C112.306 16.728 112.733 12.544 109.548 17.33ZM22.0884 18.918C15.4284 25.139 11.2634 40.206 13.9514 48.351C16.3104 55.499 23.5584 57.288 28.8244 52.022C36.8554 43.991 38.6834 19.395 31.4554 16.621C28.1324 15.346 25.1214 16.084 22.0884 18.918ZM191.114 20.75C189.049 25.781 188.107 30 189.049 30C190.298 30 194 22.551 194 20.04C194 17.134 192.441 17.518 191.114 20.75ZM25.5844 23.06C19.9394 28.017 16.0464 40.744 17.9804 47.925C20.0664 55.674 26.3554 53.835 30.7744 44.183C32.8634 39.619 33.3734 36.94 33.4304 30.233C33.4834 23.885 33.1474 21.707 32.0004 20.981C29.7934 19.583 29.3994 19.711 25.5844 23.06ZM72.6044 24.155C70.6834 26.898 72.1324 30 75.3354 30C78.1994 30 80.0004 28.227 80.0004 25.407C80.0004 21.619 74.9764 20.768 72.6044 24.155ZM151.317 26.971L150.174 30H154.432C157.353 30 159.233 29.4 160.418 28.091C162.345 25.961 162.26 25.901 155.48 24.546C152.802 24.01 152.331 24.285 151.317 26.971ZM175.74 40.75C174.783 45.013 173.999 49.288 174 50.25C174 52.747 176.355 52.413 179.923 49.411C182.759 47.025 183 46.329 183 40.528C183 34.845 182.781 34.175 180.75 33.63C179.512 33.299 178.271 33.021 177.991 33.014C177.711 33.006 176.698 36.487 175.74 40.75ZM208.2 39.2C206.835 40.565 206.563 45 207.845 45C209.241 45 212 41.462 212 39.671C212 37.725 209.931 37.469 208.2 39.2ZM194.229 40.171C192.85 41.55 192.533 48 193.845 48C195.334 48 197.803 44.579 198.157 42.025C198.543 39.238 196.246 38.154 194.229 40.171ZM147 45.5V51H150.311C153.801 51 158 47.996 158 45.5C158 44.689 156.298 43.619 154.042 43.011C151.865 42.425 149.814 41.508 149.483 40.973C148.01 38.589 147 40.431 147 45.5ZM90.0004 47.441C90.0004 48.298 90.4504 49 91.0004 49C91.5504 49 92.0004 48.577 92.0004 48.059C92.0004 47.541 91.5504 46.84 91.0004 46.5C90.4504 46.16 90.0004 46.584 90.0004 47.441Z" fill="#5B302B"/>
</svg>
